<?xml version="1.0" encoding="UTF-8"?>
<svg version="1.1" xmlns="http://www.w3.org/2000/svg" width="512" height="512">
    <path
        d="M0 0 C14.5627786 24.32057949 14.5627786 24.32057949 15 37 C15.79921875 36.49210937 16.5984375 35.98421875 17.421875 35.4609375 C38.81920908 22.04993234 60.9963263 14.16733529 86.4375 19.1875 C111.03872283 25.33066249 130.30835922 41.76413442 145.98828125 61.0625 C147 63 147 63 146.91015625 64.93359375 C138.13016426 84.86756699 113.445884 100.24500787 94 108 C74.85183846 115.03652031 54.1028288 113.13312155 35.71679688 104.83203125 C27.36080718 100.88043021 19.84406595 95.82885793 12.55859375 90.1640625 C10.99139985 88.92198766 10.99139985 88.92198766 9 88 C8.731875 88.845625 8.46375 89.69125 8.1875 90.5625 C6.95217033 94.13845432 5.50565549 97.53080475 4 101 C4.4218457 101.39566162 4.84369141 101.79132324 5.27832031 102.19897461 C37.57554176 132.76567483 53.54557319 171.9743917 55.1796875 216.34765625 C56.170828 257.87979474 42.03931635 297.50500147 18 331 C17.566875 331.60424805 17.13375 332.20849609 16.6875 332.83105469 C10.4218059 341.47085944 3.40146593 349.33269273 -4 357 C-4.56799316 357.58990723 -5.13598633 358.17981445 -5.72119141 358.78759766 C-13.08649206 366.39711939 -20.58698499 373.53960784 -29 380 C-29.56879883 380.44520996 -30.13759766 380.89041992 -30.72363281 381.34912109 C-66.52968567 409.34449346 -107.61626192 429.07692334 -152.1875 438.25 C-152.909375 438.40106201 -153.63125 438.55212402 -154.375 438.70776367 C-169.21482466 441.58769024 -184.1092346 442.38197482 -199.1875 442.3125 C-200.03717346 442.31034485 -200.88684692 442.3081897 -201.76226807 442.30596924 C-229.96513852 442.19166988 -257.7598095 437.70023329 -284 427 C-284.78149414 426.68192383 -285.56298828 426.36384766 -286.36816406 426.03613281 C-303.37237378 418.99506603 -319.20500732 410.29553695 -333 398 C-333.93328125 397.19820313 -334.8665625 396.39640625 -335.828125 395.5703125 C-349.41777662 383.65151968 -363.59981638 365.73460832 -365.17700195 346.88452148 C-365.71578563 326.9838701 -365.71578563 326.9838701 -361 318 C-360.63390625 317.22398437 -360.2678125 316.44796875 -359.890625 315.6484375 C-353.97635317 304.4405273 -343.7279961 295.69608913 -334.84375 286.86328125 C-334.02672356 286.05007668 -334.02672356 286.05007668 -333.19319153 285.22044373 C-330.4612974 282.5031069 -327.72300402 279.79287578 -324.97143555 277.09545898 C-318.51355942 270.73226466 -312.57871714 264.16624929 -307 257 C-306.47817139 256.33726074 -305.95634277 255.67452148 -305.41870117 254.99169922 C-291.67741488 237.31638639 -282.47353623 217.54341679 -274 196.9375 C-270.06612869 187.38562229 -265.86262457 178.11235114 -261 169 C-260.42813965 167.91428711 -260.42813965 167.91428711 -259.84472656 166.80664062 C-236.92024677 123.46995281 -200.69192837 87.27828223 -153.19189453 72.39624023 C-136.08494096 67.3785182 -119.37726166 65.73915383 -101.625 65.6875 C-100.91115143 65.68373352 -100.19730286 65.67996704 -99.46182251 65.67608643 C-85.16247943 65.63781383 -71.41212026 67.35376012 -57.5 70.75 C-56.4270166 71.0087793 -55.3540332 71.26755859 -54.24853516 71.53417969 C-46.90495521 73.3686916 -40.00454625 75.6464475 -33.0859375 78.703125 C-29.75066721 80.10478289 -26.49176831 81.06768907 -23 82 C-22.20086128 80.16991133 -21.41109245 78.33573034 -20.625 76.5 C-19.96371094 74.96859375 -19.96371094 74.96859375 -19.2890625 73.40625 C-16.54886001 66.1654725 -15.63709326 59.80874053 -15.6875 52.125 C-15.69241455 51.24021973 -15.6973291 50.35543945 -15.70239258 49.44384766 C-15.8748965 39.85262954 -18.34249239 32.75636169 -22.81640625 24.32421875 C-24.03572535 21.92984626 -25.01717288 19.49917414 -26 17 C-25.44538086 16.59160889 -24.89076172 16.18321777 -24.31933594 15.76245117 C-21.79609079 13.90431487 -19.27304349 12.04591011 -16.75 10.1875 C-15.44095703 9.22360352 -15.44095703 9.22360352 -14.10546875 8.24023438 C-13.26113281 7.61826172 -12.41679687 6.99628906 -11.546875 6.35546875 C-10.77182617 5.78465576 -9.99677734 5.21384277 -9.19824219 4.62573242 C-7.74084496 3.54789944 -6.30812626 2.43581838 -4.90332031 1.2902832 C-3 0 -3 0 0 0 Z "
        fill="#FFFFFF" transform="translate(365,35)" />
</svg>